# xmcd
#
# Track frame offsets:
#	150
#	17720
#	36529
#	52662
#	70783
#	87239
#	104823
#	123632
#	139765
#	157886
#
# Disc length: 2324 seconds
#
# Revision: 1
# Processed by: cddbd v1.5.2PL0 Copyright (c) Steve Scherf et al.
# Submitted via: audiograbber 1.83.01
#
DISCID=8509120a
DTITLE=Karaoke - Big and Rich - Toby Keith
DYEAR=2005
DGENRE=Karaoke Country
TTITLE0=Toby Keith - As Good As I Once Was
TTITLE1=Big and Rich - Big Time (Vocal)
TTITLE2=Big and Rich - Save A Horse (Ride A Cowboy) (Vocal)
TTITLE3=Toby Keith - I Love This Bar (Vocal)
TTITLE4=Toby Keith - Who's Your Daddy (Vocal)
TTITLE5=Toby Keith - As Good As I Once Was
TTITLE6=Big and Rich - Big Time
TTITLE7=Big and Rich - Save A Horse (Ride A Cowboy)
TTITLE8=Toby Keith - I Love This Bar
TTITLE9=Toby Keith - Who's Your Daddy
EXTD=
EXTT0=
EXTT1=
EXTT2=
EXTT3=
EXTT4=
EXTT5=
EXTT6=
EXTT7=
EXTT8=
EXTT9=
PLAYORDER=
